<?xml version="1.0" encoding="UTF-8"?>
<svg width="40" height="40" viewBox="0 0 40 40" xmlns="http://www.w3.org/2000/svg">
  <defs>
    <linearGradient id="logoGradient" x1="0%" y1="0%" x2="100%" y2="100%">
      <stop offset="0%" stop-color="#ff0000" />
      <stop offset="100%" stop-color="#990000" />
    </linearGradient>
  </defs>
  <g fill="none" fill-rule="evenodd">
    <path d="M20,0 C31.0457,0 40,8.9543 40,20 C40,31.0457 31.0457,40 20,40 C8.9543,40 0,31.0457 0,20 C0,8.9543 8.9543,0 20,0 Z" fill="url(#logoGradient)" opacity="0.8"/>
    <path d="M20,5 C28.2843,5 35,11.7157 35,20 C35,28.2843 28.2843,35 20,35 C11.7157,35 5,28.2843 5,20 C5,11.7157 11.7157,5 20,5 Z" stroke="#ffffff" stroke-width="0.5" opacity="0.6"/>
    <path d="M20,10 C25.5228,10 30,14.4772 30,20 C30,25.5228 25.5228,30 20,30 C14.4772,30 10,25.5228 10,20 C10,14.4772 14.4772,10 20,10 Z" stroke="#ffffff" stroke-width="0.5" opacity="0.8"/>
    <path d="M20,15 C22.7614,15 25,17.2386 25,20 C25,22.7614 22.7614,25 20,25 C17.2386,25 15,22.7614 15,20 C15,17.2386 17.2386,15 20,15 Z" fill="#ffffff" opacity="0.9"/>
    <path d="M10,10 L30,30 M30,10 L10,30" stroke="#ffffff" stroke-width="0.5" opacity="0.4"/>
    <path d="M5,20 L35,20 M20,5 L20,35" stroke="#ffffff" stroke-width="0.5" opacity="0.4"/>
  </g>
</svg>
